
            <svg width="48" height="48" viewBox="0 0 48 48" fill="none" xmlns="http://www.w3.org/2000/svg">
                <path d="M36.999 25.043C34.0817 25.043 31.2836 26.2524 29.2206 28.4051C27.1576 30.5577 25.9986 33.4775 25.9986 36.5216C25.9986 39.5658 27.1576 42.4855 29.2206 44.6382C31.2836 46.7909 34.0817 48.0003 36.999 48.0003C39.9164 48.0003 42.7145 46.7909 44.7774 44.6382C46.8404 42.4855 47.9995 39.5658 47.9995 36.5216C47.9995 33.4775 46.8404 30.5577 44.7774 28.4051C42.7145 26.2524 39.9164 25.043 36.999 25.043ZM36.999 45.9133C34.6118 45.9133 32.3226 44.924 30.6347 43.1627C28.9467 41.4014 27.9987 39.0126 27.9987 36.5216C27.9987 34.0307 28.9468 31.642 30.6347 29.8806C32.3226 28.1193 34.6118 27.13 36.999 27.13C39.3862 27.13 41.6754 28.1193 43.3634 29.8806C45.0514 31.6419 45.9994 34.0307 45.9994 36.5216C45.9994 39.0126 45.0513 41.4013 43.3634 43.1627C41.6755 44.924 39.3862 45.9133 36.999 45.9133Z" fill="#58595B"></path>
                <path d="M40.1803 32.8904L35.3301 37.9408L33.8198 36.3649V36.3653C33.6323 36.1676 33.3764 36.0568 33.11 36.0568C32.8432 36.0568 32.5877 36.1676 32.3998 36.3653C32.0119 36.7721 32.0119 37.4296 32.3998 37.8369L34.63 40.1534C35.0199 40.5578 35.6499 40.5578 36.0399 40.1534L41.6003 34.3619C41.9897 33.9526 41.9874 33.2914 41.5952 32.8851C41.203 32.4791 40.5698 32.4811 40.1804 32.8904L40.1803 32.8904Z" fill="#F04E30"></path>
                <path d="M23.3309 41.7409H4.00012C3.46963 41.7409 2.96098 41.5212 2.58596 41.1294C2.21056 40.7381 2 40.2074 2 39.6538V16.6965H31.0012C31.5535 16.6965 32.0012 16.2293 32.0012 15.653C32.0012 15.0766 31.5535 14.6094 31.0012 14.6094H2V8.34835C2 7.7948 2.21056 7.26403 2.58596 6.87271C2.96098 6.48099 3.46959 6.26128 4.00012 6.26128H8.5003V7.30479C8.5003 8.13512 8.81633 8.93122 9.37885 9.51861C9.94177 10.1056 10.7047 10.4354 11.5004 10.4354H12.5005C13.2962 10.4354 14.0591 10.1056 14.6221 9.51861C15.1846 8.93123 15.5006 8.13512 15.5006 7.30479V6.26128H28.5011V7.30479C28.5011 8.13512 28.8172 8.93122 29.3797 9.51861C29.9426 10.1056 30.7055 10.4354 31.5013 10.4354H32.5013C33.2971 10.4354 34.06 10.1056 34.6229 9.51861C35.1854 8.93123 35.5015 8.13512 35.5015 7.30479V6.26128H40.0016C40.5321 6.26128 41.0408 6.48099 41.4158 6.87271C41.7912 7.26403 42.0018 7.79476 42.0018 8.34835V14.6094H37.5215C36.9691 14.6094 36.5214 15.0766 36.5214 15.653C36.5214 16.2293 36.9691 16.6965 37.5215 16.6965H42.0018V22.8947C42.0018 23.4711 42.4494 23.9383 43.0018 23.9383C43.5542 23.9383 44.0018 23.4711 44.0018 22.8947V8.34814C44.0018 7.24108 43.5803 6.17961 42.8303 5.39656C42.0799 4.61392 41.0626 4.17408 40.0017 4.17408H35.5015V3.13057C35.5015 2.30024 35.1855 1.50414 34.6229 0.916749C34.06 0.329772 33.2971 0 32.5014 0H31.5013C30.7056 0 29.9427 0.329772 29.3797 0.916749C28.8172 1.50413 28.5012 2.30024 28.5012 3.13057V4.17408H15.5007V3.13057C15.5007 2.30024 15.1846 1.50414 14.6221 0.916749C14.0592 0.329772 13.2963 0 12.5005 0H11.5005C10.7047 0 9.94182 0.329772 9.37889 0.916749C8.81637 1.50413 8.50034 2.30024 8.50034 3.13057V4.17408H4.00016C2.93922 4.17408 1.92198 4.6139 1.17155 5.39656C0.421517 6.1796 0 7.24108 0 8.34814V39.6536C0 40.7607 0.421497 41.8221 1.17155 42.6052C1.92197 43.3878 2.93922 43.8277 4.00016 43.8277H23.3309C23.8833 43.8277 24.331 43.3605 24.331 42.7841C24.331 42.2078 23.8833 41.7406 23.3309 41.7406L23.3309 41.7409ZM30.5011 3.13082C30.5011 2.55444 30.9488 2.0873 31.5011 2.0873H32.5012C32.7664 2.0873 33.0207 2.19736 33.2082 2.39302C33.3957 2.58868 33.5012 2.85405 33.5012 3.13082V7.30488C33.5012 7.58165 33.3957 7.84701 33.2082 8.04267C33.0207 8.23833 32.7664 8.34839 32.5012 8.34839H31.5011C30.9488 8.34839 30.5011 7.88125 30.5011 7.30488V3.13082ZM10.5003 3.13082C10.5003 2.55444 10.948 2.0873 11.5003 2.0873H12.5004C12.7656 2.0873 13.0199 2.19736 13.2074 2.39302C13.3949 2.58868 13.5004 2.85405 13.5004 3.13082V7.30488C13.5004 7.58165 13.3949 7.84701 13.2074 8.04267C13.0199 8.23833 12.7656 8.34839 12.5004 8.34839H11.5003C10.948 8.34839 10.5003 7.88125 10.5003 7.30488V3.13082Z" fill="#58595B"></path>
                <path d="M23.9988 22.9571C23.9988 24.1099 23.1034 25.0442 21.9987 25.0442C20.8939 25.0442 19.9986 24.1099 19.9986 22.9571C19.9986 21.8044 20.8939 20.8701 21.9987 20.8701C23.1034 20.8701 23.9988 21.8044 23.9988 22.9571Z" fill="#58595B"></path>
                <path d="M12.0009 22.9571C12.0009 24.1099 11.1055 25.0442 10.0008 25.0442C8.89608 25.0442 8.00073 24.1099 8.00073 22.9571C8.00073 21.8044 8.89608 20.8701 10.0008 20.8701C11.1055 20.8701 12.0009 21.8044 12.0009 22.9571Z" fill="#58595B"></path>
                <path d="M12.0009 34.4347C12.0009 35.5875 11.1055 36.5217 10.0008 36.5217C8.89608 36.5217 8.00073 35.5874 8.00073 34.4347C8.00073 33.2819 8.89608 32.3477 10.0008 32.3477C11.1055 32.3477 12.0009 33.2819 12.0009 34.4347Z" fill="#58595B"></path>
            </svg>
        