<svg width="24" height="24" viewBox="0 0 24 24" fill="none" xmlns="http://www.w3.org/2000/svg">
                            <path d="M21.9468 17.7355V20.8892C21.948 21.182 21.8879 21.4717 21.7704 21.74C21.6529 22.0082 21.4805 22.249 21.2644 22.4469C21.0482 22.6449 20.793 22.7956 20.5152 22.8893C20.2373 22.9831 19.9429 23.018 19.6507 22.9916C16.4098 22.6401 13.2966 21.5348 10.5613 19.7644C8.01656 18.1504 5.85903 15.997 4.24197 13.4571C2.46198 10.7147 1.35426 7.59233 1.00855 4.34302C0.982229 4.05233 1.01684 3.75935 1.11019 3.48273C1.20353 3.20612 1.35356 2.95194 1.55072 2.73637C1.74788 2.5208 1.98785 2.34856 2.25535 2.23063C2.52286 2.11269 2.81204 2.05165 3.10448 2.05137H6.26417C6.77531 2.04635 7.27084 2.22701 7.65839 2.55967C8.04595 2.89233 8.29909 3.3543 8.37063 3.85947C8.50399 4.8687 8.75132 5.85964 9.10789 6.81339C9.2496 7.18964 9.28026 7.59856 9.19626 7.99167C9.11226 8.38479 8.91711 8.74564 8.63394 9.03145L7.29633 10.3665C8.79567 12.9983 10.9789 15.1773 13.6157 16.6738L14.9533 15.3388C15.2397 15.0561 15.6012 14.8613 15.9951 14.7775C16.389 14.6937 16.7987 14.7243 17.1756 14.8657C18.1312 15.2216 19.124 15.4685 20.1352 15.6016C20.6468 15.6736 21.1141 15.9308 21.4481 16.3243C21.7821 16.7177 21.9596 17.22 21.9468 17.7355Z" stroke="#58595B" stroke-linecap="round" stroke-linejoin="round"></path>
                            <path d="M14.6267 5.20487C15.6554 5.40519 16.6009 5.90735 17.342 6.64707C18.0831 7.38679 18.5863 8.33042 18.787 9.35718M14.6267 1C16.764 1.23698 18.757 2.19226 20.2786 3.70899C21.8001 5.22573 22.7598 7.21376 22.9999 9.34667" stroke="#F04E30" stroke-linecap="round" stroke-linejoin="round"></path>
                        </svg>