<svg width="120" height="120" viewBox="0 0 120 120" fill="none"
                                        xmlns="http://www.w3.org/2000/svg">
                                        <path
                                            d="M63.1504 49.7383H62.1504L61.1504 50.2383L59.6504 52.2383L60.1504 55.2383C60.3171 55.2383 60.7504 55.1383 61.1504 54.7383C61.6504 54.2383 61.6504 54.7383 62.1504 54.2383L63.1504 53.2383C63.6504 52.7383 63.6504 53.2383 63.6504 52.7383V51.7383L63.1504 50.7383V49.7383Z"
                                            fill="#F04E30"></path>
                                        <path
                                            d="M30.8074 71.4883C30.8074 71.4883 26.6871 74.1029 25.7183 77.3361C24.7261 80.6394 25.835 84.0477 25.835 84.0477"
                                            stroke="#58595B" stroke-width="1.12" stroke-miterlimit="10"
                                            stroke-linecap="round"></path>
                                        <path
                                            d="M89.5542 47.6065C89.5542 47.6065 93.908 45.4121 95.1919 42.2956C96.4992 39.0974 95.7405 35.6074 95.7405 35.6074"
                                            stroke="#58595B" stroke-width="1.12" stroke-miterlimit="10"
                                            stroke-linecap="round"></path>
                                        <path
                                            d="M60.0812 107.055C68.5905 107.055 75.4887 86.0003 75.4887 60.0276C75.4887 34.055 68.5905 13 60.0812 13C51.572 13 44.6738 34.055 44.6738 60.0276C44.6738 86.0003 51.572 107.055 60.0812 107.055Z"
                                            stroke="#58595B" stroke-width="2" stroke-miterlimit="10"
                                            stroke-linecap="round"></path>
                                        <path
                                            d="M100.018 84.8593C104.509 77.6321 90.2676 60.6594 68.2079 46.9499C46.1483 33.2403 24.6243 27.9854 20.1327 35.2127C15.6412 42.44 29.8829 59.4126 51.9425 73.1222C74.0021 86.8317 95.5261 92.0866 100.018 84.8593Z"
                                            stroke="#58595B" stroke-width="2" stroke-miterlimit="10"
                                            stroke-linecap="round"></path>
                                        <path
                                            d="M68.5131 72.9289C90.2561 58.7224 104.109 41.431 99.4546 34.3075C94.8002 27.184 73.401 32.9259 51.6581 47.1323C29.9152 61.3388 16.0622 78.6302 20.7166 85.7537C25.371 92.8772 46.7702 87.1354 68.5131 72.9289Z"
                                            stroke="#58595B" stroke-width="2" stroke-miterlimit="10"
                                            stroke-linecap="round"></path>
                                        <path
                                            d="M56.7312 60.1439C55.8324 58.9183 55.1555 57.9845 54.9103 57.611C53.8948 56.0469 54.992 53.4674 55.3656 52.5686C55.6457 51.8799 56.8363 49.6855 56.8363 49.6855"
                                            stroke="#58595B" stroke-miterlimit="10" stroke-linecap="round"></path>
                                        <path
                                            d="M63.023 60.1562C65.5208 62.8175 68.3689 65.969 68.3689 65.969L64.8438 71.1515C64.8438 71.1515 62.346 67.7899 59.8364 64.3933"
                                            stroke="#58595B" stroke-miterlimit="10" stroke-linecap="round"></path>
                                        <path
                                            d="M63.2212 49.5809C63.2212 49.5809 63.3613 50.1294 63.2796 50.9232C63.1862 51.8569 62.9061 52.5573 60.7467 55.347C58.5873 58.1366 51.3271 65.5252 51.3271 65.5252L55.3307 70.4392C55.3307 70.4392 64.9254 58.2884 65.1238 57.2962C65.3105 56.3041 64.6802 52.1488 64.085 50.9699C63.478 49.7909 62.6726 48.2152 59.9063 48.2385C58.2722 48.2502 57.3384 48.8805 56.9182 49.7092C56.8598 49.826 56.8131 49.9544 56.7664 50.0828C56.6147 50.573 56.6264 51.1216 56.7664 51.6352C57.0349 52.674 58.3305 54.6349 59.9296 56.6426"
                                            fill="#F04E30"></path>
                                        <path
                                            d="M63.2212 49.5809C63.2212 49.5809 63.3613 50.1294 63.2796 50.9232C63.1862 51.8569 62.9061 52.5573 60.7467 55.347C58.5873 58.1366 51.3271 65.5252 51.3271 65.5252L55.3307 70.4392C55.3307 70.4392 64.9254 58.2884 65.1238 57.2962C65.3105 56.3041 64.6802 52.1488 64.085 50.9699C63.478 49.7909 62.6726 48.2152 59.9063 48.2385C58.2722 48.2502 57.3384 48.8805 56.9182 49.7092C56.8598 49.826 56.8131 49.9544 56.7664 50.0828C56.6147 50.573 56.6264 51.1216 56.7664 51.6352C57.0349 52.674 58.3305 54.6349 59.9296 56.6426"
                                            stroke="#58595B" stroke-miterlimit="10" stroke-linecap="round"></path>
                                    </svg>