
            <svg width="47" height="47" viewBox="0 0 47 47" fill="none" xmlns="http://www.w3.org/2000/svg">
                <path d="M6.80701 22.8542C11.3724 27.376 16.9684 30.2647 16.9684 30.2647C16.9684 30.2647 32.9363 22.0268 32.9363 11.5896C32.9363 6.56695 29.0894 2.44434 24.3354 2.44434" stroke="#58595B" stroke-width="1.5" stroke-linecap="round" stroke-linejoin="round"></path>
                <path d="M9.60076 2.45117C4.84668 2.45117 0.999878 6.57379 0.999878 11.5964C0.999878 14.2964 2.06682 16.844 3.64909 19.1449" stroke="#58595B" stroke-width="1.5" stroke-linecap="round" stroke-linejoin="round"></path>
                <path d="M11.8876 5.35487C13.0902 5.35487 14.0651 4.38 14.0651 3.17744C14.0651 1.97487 13.0902 1 11.8876 1C10.6851 1 9.71021 1.97487 9.71021 3.17744C9.71021 4.38 10.6851 5.35487 11.8876 5.35487Z" stroke="#58595B" stroke-width="1.5" stroke-linecap="round" stroke-linejoin="round"></path>
                <path d="M22.0474 5.35487C23.25 5.35487 24.2249 4.38 24.2249 3.17744C24.2249 1.97487 23.25 1 22.0474 1C20.8449 1 19.87 1.97487 19.87 3.17744C19.87 4.38 20.8449 5.35487 22.0474 5.35487Z" stroke="#58595B" stroke-width="1.5" stroke-linecap="round" stroke-linejoin="round"></path>
                <path d="M39.467 33.6611V34.7498C39.467 40.9337 34.4008 45.9999 28.2169 45.9999C22.033 45.9999 16.9668 40.9337 16.9668 34.7498V30.7578" stroke="#58595B" stroke-width="1.5" stroke-linecap="round" stroke-linejoin="round"></path>
                <path d="M36.5668 35.8751C34.4184 34.8082 32.9377 32.5944 32.9377 30.0323C32.9377 26.425 35.8628 23.5 39.4701 23.5C43.0773 23.5 46.0024 26.425 46.0024 30.0323C46.0024 32.5944 44.5217 34.8082 42.3733 35.8751" stroke="#58595B" stroke-width="1.5" stroke-linecap="round" stroke-linejoin="round"></path>
                <path d="M39.4693 32.9354C41.0727 32.9354 42.3725 31.6356 42.3725 30.0322C42.3725 28.4287 41.0727 27.1289 39.4693 27.1289C37.8659 27.1289 36.566 28.4287 36.566 30.0322C36.566 31.6356 37.8659 32.9354 39.4693 32.9354Z" stroke="#F04E30" stroke-width="1.5" stroke-linecap="round" stroke-linejoin="round"></path>
                <circle cx="39" cy="30" r="3" fill="#F04E30"></circle>
                <path d="M0.999878 19.1453H7.53219L9.70963 15.5162L13.3387 22.7744L17.6936 10.4355L21.3226 19.1453H24.9517" stroke="#58595B" stroke-width="1.5" stroke-linecap="square" stroke-linejoin="round"></path>
            </svg>
        