
            <svg width="35" height="50" viewBox="0 0 35 50" fill="none" xmlns="http://www.w3.org/2000/svg">
                <path d="M11.7606 5.30971C10.6214 5.25144 9.7154 4.30998 9.7154 3.156C9.7154 2.00202 10.6809 1 11.8714 1H22.4994C23.69 1 24.6554 1.96546 24.6554 3.156C24.6554 4.34654 23.69 5.312 22.4994 5.312H22.6137V17.5259C28.8829 19.7562 33.372 25.7431 33.372 32.7778C33.372 41.7172 26.1248 48.9633 17.1866 48.9633C8.24836 48.9633 1 41.7172 1 32.7778C1 25.7431 5.48795 19.7562 11.7571 17.5248V5.312" stroke="#58595B" stroke-width="1.5" stroke-linecap="round" stroke-linejoin="round"></path>
                <path d="M1 33.8677C1 33.8677 3.99006 31.3758 6.62822 31.8888C9.26637 32.4018 9.41262 33.4279 12.1982 33.8677C14.9826 34.3076 16.4485 29.9842 20.845 30.7166C25.2416 31.4489 25.0953 34.6001 28.8326 34.6001C32.5699 34.6001 33.3708 32.7777 33.3708 32.7777" stroke="#58595B" stroke-width="1.5" stroke-linejoin="round"></path>
                <path d="M8.21101 38.2342C8.64025 37.805 8.64025 37.1091 8.21102 36.6798C7.78178 36.2506 7.08584 36.2506 6.6566 36.6798C6.22736 37.1091 6.22736 37.805 6.6566 38.2342C7.08584 38.6635 7.78178 38.6635 8.21101 38.2342Z" fill="#F04E30" stroke="#F04E30" stroke-width="1.5" stroke-linejoin="round"></path>
                <path d="M16.0855 43.923C17.1829 43.923 18.0724 43.0335 18.0724 41.9361C18.0724 40.8388 17.1829 39.9492 16.0855 39.9492C14.9882 39.9492 14.0986 40.8388 14.0986 41.9361C14.0986 43.0335 14.9882 43.923 16.0855 43.923Z" fill="#F04E30" stroke="#F04E30" stroke-width="1.5" stroke-linejoin="round"></path>
                <path d="M26.3662 40.3841C26.8846 39.8656 26.8846 39.025 26.3662 38.5065C25.8477 37.988 25.0071 37.988 24.4886 38.5065C23.9701 39.025 23.9701 39.8656 24.4886 40.3841C25.0071 40.9026 25.8477 40.9026 26.3662 40.3841Z" fill="#F04E30" stroke="#F04E30" stroke-width="1.5" stroke-linejoin="round"></path>
            </svg>
