<svg width="120" height="120" viewBox="0 0 120 120" fill="none"
                                        xmlns="http://www.w3.org/2000/svg">
                                        <path
                                            d="M107.967 63.1688C107.967 73.569 99.5473 82 89.1607 82C91.1063 74.8571 91.1063 68.3742 91.1063 57.974C91.1063 47.5739 78.7742 32 89.1607 32C99.5473 32 108.616 48.8831 107.967 63.1688Z"
                                            fill="#F04E30"></path>
                                        <path
                                            d="M12.6528 103.237C12.6528 103.237 14.8662 69.9851 32.5347 74.0386C41.7228 76.1233 61.3344 87.5248 67.048 65.6484C68.1418 61.0929 71.8737 51.9949 61.5017 44.5697C57.1264 41.4298 53.549 38.4701 56.0068 15.3711"
                                            stroke="#58595B" stroke-width="2" stroke-miterlimit="10"
                                            stroke-linecap="round"></path>
                                        <path
                                            d="M66.9321 16.3633C66.9321 16.3633 63.0072 42.8724 74.9106 36.4768C80.4054 33.5299 89.8123 28.228 99.5281 38.4714C107.365 46.5013 113.761 59.1768 99.6825 83.1637C92.489 95.6719 70.4967 114.499 42.1345 88.9803C37.7592 85.0683 26.6666 77.8233 23.3979 104.268"
                                            stroke="#58595B" stroke-width="2" stroke-miterlimit="10"
                                            stroke-linecap="round"></path>
                                        <path
                                            d="M62.0171 91.7346C62.0171 91.7346 74.0878 93.8707 81.3713 89.4955C88.8093 85.0301 92.5412 76.8457 92.5412 76.8457"
                                            stroke="#58595B" stroke-width="2" stroke-miterlimit="10"
                                            stroke-linecap="round"></path>
                                    </svg>