<svg width="120" height="120" viewBox="0 0 120 120" fill="none"
                                        xmlns="http://www.w3.org/2000/svg">
                                        <path
                                            d="M33 22.5L23.5 24L22 25V27.5L23 33.5L24 37.5V43V49.5L23 54C22.6667 55.8333 22 59.6 22 60V70.5C22 71.5 23 73 23.5 73C23.9 73 25.3333 75.3333 26 76.5L27.5 78H31L35.5 77L37.5 75.5L39.5 70L40 66.5L41.5 62.5L42.5 59.5L44 56.5V54L42 52L39.5 50L37.5 47L35.5 45.5L35 42.5L34 38V35L35.5 31.5L36.5 28.5L36 25.5L34 23.5L33 22.5Z"
                                            fill="#F04E30"></path>
                                        <path
                                            d="M39.8602 65.8231C39.8602 65.8231 42.1099 55.4719 48.4164 52.3246C54.7109 49.1773 55.1657 48.7226 55.1657 48.7226C55.1657 48.7226 56.5179 40.1664 61.0174 38.8261C65.517 37.4858 80.3677 37.9286 81.72 37.9286C83.0722 37.9286 84.8672 39.7236 85.322 42.8828C85.7767 46.0301 84.4245 48.7346 80.8225 48.7346H74.0732C74.0732 48.7346 73.6185 51.4391 74.0732 52.7793C74.5279 54.1316 84.8792 63.1306 89.3787 67.1754C93.8782 71.2202 95.6732 80.2311 94.7757 87.4232C93.8782 94.6272 92.0712 96.4222 92.0712 97.7745C92.0712 99.1267 92.0712 103.171 90.2762 104.524C88.4812 105.876 78.1299 107.228 63.7219 102.729C49.3259 98.2292 39.8721 91.4799 38.0652 89.2302C36.2701 86.9804 35.8154 85.1854 35.8154 85.1854C35.8154 85.1854 24.1119 79.7884 22.3169 72.5844C20.5218 65.3804 22.3169 55.9386 23.6691 50.5296C25.0214 45.1326 22.7716 34.7813 22.3169 29.8271C21.8621 24.8728 21.4194 22.623 28.1686 22.623C34.9179 22.623 35.3726 23.5206 35.8154 24.4181C36.2582 25.3156 37.1676 28.4628 37.1676 28.4628"
                                            stroke="#58595B" stroke-width="2" stroke-miterlimit="10" stroke-linecap="round">
                                        </path>
                                        <path
                                            d="M71.8107 37.0207C71.8107 37.0207 70.0157 32.5211 69.561 31.6236C69.1063 30.7261 68.6635 30.2714 68.6635 30.2714C68.6635 30.2714 73.6177 28.4764 73.6177 27.1241C73.6177 25.7719 71.368 22.1699 69.573 20.8296C67.7779 19.4773 66.4257 18.5798 64.1759 20.8296L61.4714 23.5341C61.4714 23.5341 59.4012 22.8041 58.7669 22.6366C58.1207 22.4571 56.5172 22.1818 56.5172 22.1818C56.5172 22.1818 57.4147 16.7848 56.0625 15.8873C54.7102 14.9898 48.8585 14.9898 47.0634 15.4326C45.2684 15.8873 43.9162 16.7848 44.3589 18.5798C44.8137 20.3749 46.154 23.5341 46.154 23.5341C46.154 23.5341 42.552 24.4316 39.4047 26.6813C36.2574 28.9311 33.1102 35.2376 34.4504 40.6346C35.8027 46.0316 40.3022 51.4406 42.0972 52.7809C43.8922 54.1332 44.8017 55.0307 44.8017 55.0307"
                                            stroke="#58595B" stroke-width="2" stroke-miterlimit="10" stroke-linecap="round">
                                        </path>
                                        <path
                                            d="M34.1995 36.2634C34.1995 36.2634 36.4969 44.4242 43.7004 42.6891C50.8919 40.966 50.856 34.2891 50.856 34.2891"
                                            stroke="#58595B" stroke-width="2" stroke-miterlimit="10" stroke-linecap="round">
                                        </path>
                                        <path
                                            d="M22.9983 71.783C22.9983 71.783 25.2957 79.9437 32.4992 78.2086C39.6907 76.4856 39.6548 69.8086 39.6548 69.8086"
                                            stroke="#58595B" stroke-width="2" stroke-miterlimit="10" stroke-linecap="round">
                                        </path>
                                        <path
                                            d="M83.0598 71.3652C83.0598 71.3652 86.6017 77.5636 86.159 84.2046C85.7162 90.8457 84.8308 93.0594 84.8308 93.0594"
                                            stroke="#58595B" stroke-width="2" stroke-miterlimit="10" stroke-linecap="round">
                                        </path>
                                    </svg>