
            <svg width="44" height="45" viewBox="0 0 44 45" fill="none" xmlns="http://www.w3.org/2000/svg">
                <g clip-path="url(#clip0_4833_21427)">
                    <path d="M31.1006 21.6144C32.2459 20.1796 32.8266 18.7424 32.8266 17.3431V16.8054C32.8266 13.712 30.2624 11.1952 27.1108 11.1952C25.4773 11.1952 23.9187 11.8832 22.8348 13.0826C22.7271 13.2015 22.6741 13.3535 22.6833 13.5121C22.6926 13.6707 22.765 13.8161 22.8861 13.921C22.9972 14.0176 23.1394 14.0705 23.2876 14.0705C23.4609 14.0705 23.6259 13.9978 23.7403 13.8706C24.5953 12.9248 25.824 12.383 27.1108 12.383C29.595 12.383 31.6165 14.367 31.6165 16.8046V17.3423C31.6165 19.3156 30.1589 21.4104 27.2841 23.5663C25.086 25.215 22.7204 26.3796 22 26.7183C21.2804 26.3796 18.914 25.2158 16.7167 23.5679C13.8419 21.412 12.3843 19.3173 12.3843 17.3423V16.8046C12.3843 14.3662 14.4058 12.383 16.89 12.383C19.3743 12.383 21.3949 14.3662 21.3949 16.8037C21.3949 17.1308 21.6667 17.3976 22 17.3976C22.3341 17.3976 22.6051 17.1308 22.6051 16.8037C22.6051 13.7112 20.04 11.1943 16.8892 11.1943C13.7384 11.1943 11.1733 13.7112 11.1733 16.8046V17.3423C11.1733 18.7424 11.754 20.1796 12.8994 21.6136C13.7822 22.7196 15.005 23.8306 16.5341 24.9168C19.1109 26.748 21.6457 27.8698 21.7526 27.916C21.8308 27.9507 21.9141 27.968 22 27.968C22.0858 27.968 22.1691 27.9507 22.2474 27.916C22.3543 27.8689 24.8958 26.7423 27.4651 24.9168C28.995 23.8298 30.2178 22.7188 31.1006 21.6136V21.6144Z" fill="#58595B" stroke="#58595B" stroke-width="0.5"></path>
                    <path d="M13.3874 16.7375C13.3874 17.0654 13.6593 17.3314 13.9925 17.3314C14.3258 17.3314 14.5976 17.0646 14.5976 16.7375C14.5976 15.6174 15.44 14.7064 16.4751 14.7064C16.8092 14.7064 17.0802 14.4396 17.0802 14.1125C17.0802 13.7854 16.8084 13.5186 16.4751 13.5186C14.7726 13.5186 13.3866 14.9624 13.3866 16.7375H13.3874Z" fill="#58595B" stroke="#58595B" stroke-width="0.5"></path>
                    <path d="M20.0551 38.4214C19.9912 38.1257 19.7076 37.9357 19.4004 37.982L18.7667 38.0778C18.7272 37.8886 18.6851 37.6854 18.6405 37.4682C18.6371 37.4525 18.6337 37.4376 18.6287 37.4228C18.4469 36.8082 18.4764 36.1499 18.5075 35.4536C18.5765 33.923 18.6539 32.1876 16.6805 30.2431C15.4442 29.0008 13.7838 28.3474 12.4491 27.8229C11.4813 27.4421 10.5683 27.0828 10.2653 26.6541C9.57774 25.6786 7.95017 24.5776 6.62303 24.4925C5.87236 24.4446 5.41455 24.7312 5.16293 24.9806C4.66304 25.4754 4.48548 26.09 4.64874 26.7582C4.77245 27.2629 5.06615 27.7379 5.3506 28.1963C5.43896 28.3384 5.52227 28.473 5.5997 28.6076C5.84122 29.0239 6.14419 29.3709 6.47828 29.679C6.86456 30.0358 7.29291 30.3398 7.71285 30.6388C8.47698 31.1823 9.26721 31.744 9.87818 32.641C10.0591 32.907 10.4302 32.969 10.708 32.7806C10.9848 32.5923 11.0631 32.2239 10.8822 31.9579C10.1584 30.8957 9.24533 30.2464 8.43995 29.674C7.69181 29.1421 7.04633 28.6828 6.64744 27.9939C6.5616 27.8452 6.46987 27.6974 6.3815 27.5545C5.75539 26.5443 5.62074 26.1693 5.99775 25.7959C6.09706 25.6976 6.26621 25.6555 6.49932 25.6704C7.41999 25.729 8.769 26.6384 9.27225 27.3521C9.76877 28.0559 10.7879 28.4573 11.9678 28.9207C13.2671 29.432 14.7407 30.0119 15.8128 31.089C17.4345 32.6873 17.3739 34.0279 17.3108 35.4478C17.2772 36.2011 17.2418 36.9792 17.4707 37.7697C17.5061 37.9415 17.5406 38.1042 17.5725 38.2587L12.3406 39.0508L12.264 38.7593C11.8735 37.27 10.8872 36.6199 8.5056 35.048C7.78943 34.5755 6.97649 34.0395 5.99439 33.3605C2.30752 30.8156 2.20149 29.1057 1.94986 25.1805C1.92798 24.8435 1.9061 24.4991 1.8817 24.1456C1.72853 21.9674 1.30439 18.8013 1.2135 18.1306C1.23454 18.0835 1.26988 18.0248 1.32627 17.9968C1.4323 17.9431 1.72348 17.891 2.09124 18.1355C2.85201 18.641 4.10088 20.1774 4.31043 23.7119C4.32979 24.039 4.39122 24.3496 4.70765 24.433C5.02407 24.5164 5.44906 24.3421 5.45663 24.0142C5.52732 20.8936 3.88629 17.7457 2.62984 17.0617C1.93135 16.6818 1.28335 16.6991 0.782621 16.9667C0.151453 17.3021 0.0218532 17.9546 0.00838833 18.0273C-0.00171036 18.0868 -0.00339348 18.1479 0.0050221 18.2074C0.0100714 18.2437 0.514164 21.8765 0.682476 24.2728C0.684159 24.2901 0.685001 24.305 0.685842 24.319C0.683317 24.2885 0.683317 24.2876 0.690892 24.4165C0.910538 27.8502 1.09063 30.6561 3.85599 33.2077C4.26919 33.5885 4.73963 33.9635 5.27654 34.3343C6.26874 35.0191 7.12207 35.5824 7.8071 36.0351C10.1433 37.5764 10.8283 38.0671 11.0984 39.0954L11.1346 39.2326L10.8005 39.2829C10.4866 39.33 10.2544 39.6084 10.2703 39.9181L10.4967 44.462C10.5043 44.6107 10.5683 44.7486 10.6768 44.8478C10.6869 44.8568 10.6979 44.8659 10.7088 44.875C10.8359 44.9758 11.0017 45.0179 11.1666 44.9923L20.4852 43.5468C20.6518 43.5212 20.8033 43.427 20.9017 43.2891C21.0002 43.1511 21.0364 42.981 21.0019 42.8207L20.0551 38.4206V38.4214ZM11.664 43.7285L11.4965 40.365L18.9939 39.2301L19.6941 42.4837L11.664 43.7285Z" fill="#58595B" stroke="#58595B" stroke-width="0.5"></path>
                    <path d="M43.9915 18.0275C43.9789 17.954 43.8485 17.3022 43.2198 16.966C42.7182 16.6984 42.0711 16.6803 41.3726 17.061C40.1161 17.745 38.4751 20.8929 38.5458 24.0135C38.5534 24.3415 38.9784 24.5157 39.2948 24.4323C39.6112 24.3489 39.6726 24.0383 39.692 23.7112C39.9016 20.1759 41.1504 18.6404 41.9112 18.1348C42.2789 17.8904 42.5701 17.9424 42.6762 17.9961C42.7325 18.0242 42.7687 18.0836 42.7889 18.1299C42.698 18.8006 42.2739 21.9667 42.1207 24.1449C42.0955 24.4984 42.0736 24.8428 42.0517 25.1799C41.8009 29.105 41.6941 30.8149 38.0072 33.3598C37.0251 34.038 36.2122 34.574 35.496 35.0473C33.1144 36.6192 32.1281 37.2701 31.7376 38.7586L31.661 39.0502L26.4291 38.258C26.461 38.1036 26.4947 37.9408 26.5309 37.769C26.7598 36.9785 26.7244 36.2004 26.6908 35.4471C26.6268 34.0272 26.5671 32.6866 28.1888 31.0883C29.2609 30.0103 30.7345 29.4313 32.0338 28.92C33.2137 28.4558 34.232 28.0552 34.7293 27.3514C35.2326 26.6378 36.5816 25.7283 37.5023 25.6697C37.7362 25.6548 37.9045 25.6969 38.0038 25.7952C38.3809 26.1686 38.2462 26.5428 37.6201 27.5538C37.5317 27.6967 37.44 27.8446 37.3542 27.9932C36.9553 28.6821 36.3098 29.1414 35.5616 29.6733C34.7563 30.2458 33.8432 30.895 33.1194 31.9572C32.9385 32.2232 33.0168 32.5916 33.2936 32.7799C33.5705 32.9683 33.9425 32.9063 34.1234 32.6403C34.7344 31.7433 35.5254 31.1816 36.2887 30.6381C36.7087 30.3391 37.137 30.0351 37.5233 29.6783C37.8574 29.3702 38.1604 29.0233 38.4019 28.607C38.4793 28.4723 38.5626 28.3385 38.651 28.1956C38.9354 27.7372 39.2291 27.2622 39.3529 26.7575C39.5161 26.0901 39.3385 25.4747 38.8387 24.98C38.587 24.7305 38.1292 24.4439 37.3786 24.4918C36.0514 24.5769 34.4239 25.6779 33.7363 26.6535C33.4342 27.0821 32.5202 27.4415 31.5525 27.8223C30.2177 28.3476 28.5565 29.001 27.3211 30.2425C25.3477 32.1869 25.4259 33.9223 25.4941 35.4529C25.5252 36.1492 25.5547 36.8067 25.3729 37.4221C25.3687 37.437 25.3645 37.4527 25.3611 37.4675C25.3157 37.6848 25.2736 37.888 25.2349 38.0771L24.6012 37.9813C24.2932 37.935 24.0096 38.125 23.9465 38.4207L22.9997 42.8209C22.9652 42.9811 23.0014 43.1513 23.099 43.2892C23.1975 43.4272 23.3481 43.5205 23.5156 43.5469L32.8342 44.9924C32.9991 45.0181 33.1649 44.9751 33.292 44.8752C33.3029 44.8661 33.3138 44.857 33.3239 44.8479C33.4317 44.7488 33.4965 44.6108 33.504 44.4622L33.7304 39.9183C33.7456 39.6085 33.5141 39.331 33.2002 39.2831L32.8661 39.2327L32.9023 39.0956C33.1725 38.0664 33.8575 37.5766 36.1936 36.0352C36.8795 35.5826 37.732 35.0201 38.7251 34.3345C39.262 33.9636 39.7324 33.5886 40.1456 33.2078C42.9118 30.6563 43.0919 27.8503 43.3107 24.4166C43.3191 24.2878 43.3183 24.2894 43.3166 24.3192C43.3174 24.3059 43.3183 24.2911 43.32 24.2729C43.4891 21.8767 43.9924 18.2439 43.9974 18.2075C44.0058 18.1481 44.0041 18.0878 43.994 18.0275H43.9915ZM32.3359 43.7278L24.3058 42.483L25.006 39.2294L32.5034 40.3643L32.3359 43.7278Z" fill="#58595B" stroke="#58595B" stroke-width="0.5"></path>
                    <path d="M4.34749 13.4205L22 1.32946L29.176 6.24419C29.3628 6.37223 29.606 6.38709 29.808 6.28384C30.0099 6.18059 30.1362 5.97574 30.1362 5.75272V1.81597H34.5156V9.58952C34.5156 9.78528 34.6133 9.96866 34.7765 10.081L39.6525 13.4205C39.7585 13.4932 39.8806 13.5287 40.0018 13.5287C40.1945 13.5287 40.3838 13.4395 40.5033 13.2727C40.696 13.0009 40.6287 12.6276 40.3518 12.4384L35.7367 9.27729V1.21629C35.7367 0.885066 35.4632 0.61744 35.1266 0.61744H29.5261C29.1886 0.61744 28.9159 0.885892 28.9159 1.21629V4.60375L22.3492 0.107794C22.1397 -0.0359313 21.8603 -0.0359313 21.6508 0.107794L3.64816 12.4376C3.37128 12.6267 3.30396 13.0001 3.49668 13.2719C3.68939 13.5436 4.06978 13.6097 4.34665 13.4205H4.34749Z" fill="#58595B" stroke="#58595B" stroke-width="0.5"></path>
                    <path d="M19 39.5L11.5 40.5L12 43.5L19.5 42.5L19 39.5Z" fill="#F04E30"></path>
                    <path d="M24 42.5L25 39L32.5 40V44L24 42.5Z" fill="#F04E30"></path>
                    <path d="M19 39.5L11.5 40.5L12 43.5L19.5 42.5L19 39.5Z" stroke="#F04E30"></path>
                    <path d="M24 42.5L25 39L32.5 40V44L24 42.5Z" stroke="#F04E30"></path>
                </g>
                <defs>
                    <clipPath id="clip0_4833_21427">
                        <rect width="44" height="45" fill="white"></rect>
                    </clipPath>
                </defs>
            </svg>
        