<svg width="120" height="120" viewBox="0 0 120 120" fill="none"
                                        xmlns="http://www.w3.org/2000/svg">
                                        <path
                                            d="M37.5 102.5H26.5C26.8333 101.833 27.5 100.4 27.5 99.9995C27.5 99.5995 28.5 97.8329 29 96.9995L29.5 93.4995V89.9995L29 88.4995L27.5 87.4995L24.5 86L22.5 84.4995L19.5 82.4995L17 76.5C17.4 63.7 25 82.5 29 70.5L30 73V75L31 76.5L32 78L34.5 79L37 79.5L41 78.5L43 77L44.5 75.5L46 72.5L47 73.5L49 77L52.5 80L57.5 82V85L55.5 86L51.5 89L46.5 93L37.5 102.5Z"
                                            fill="#F04E30"></path>
                                        <path
                                            d="M59.1412 83.661C55.8956 85.3556 53.2676 87.1077 51.415 88.4432C46.4605 92.0335 37.5567 102.646 37.5567 102.646H26.1254C26.1254 102.646 29.7587 95.1929 29.7587 92.0766C29.7587 88.9602 29.414 88.2709 29.414 88.2709C29.414 88.2709 22.8367 86.1886 20.0651 83.0722C17.2934 79.9559 15.9004 75.7912 15.9004 73.0196V69.5586"
                                            stroke="#58595B" stroke-width="2" stroke-miterlimit="10"
                                            stroke-linecap="round"></path>
                                        <path
                                            d="M100.788 34.9062C100.788 34.9062 102.181 35.2509 104.952 36.6439C107.724 38.0369 119.845 44.2696 116.384 61.2442C112.951 78.0322 93.9518 76.8689 80.7971 77.5008C80.6535 77.5008 80.4956 77.5152 80.3519 77.5295C80.0935 77.5295 79.8493 77.5583 79.5908 77.5726"
                                            stroke="#58595B" stroke-width="2" stroke-miterlimit="10"
                                            stroke-linecap="round"></path>
                                        <path
                                            d="M29.055 44.2726C29.055 44.2726 24.5456 41.1563 18.313 41.8456C12.0803 42.535 5.48865 46.355 3.06165 54.67C0.634653 62.985 5.30196 71.1276 7.91565 73.7269C11.032 76.8433 17.3795 79.0118 17.3795 79.0118"
                                            stroke="#58595B" stroke-width="2" stroke-miterlimit="10"
                                            stroke-linecap="round"></path>
                                        <path
                                            d="M22.3049 63.1566C22.3049 63.1566 26.8143 56.2203 33.7362 58.3026C40.6726 60.385 43.7889 68.0106 46.9052 73.8986C50.0216 79.7866 61.1082 87.4123 71.8502 82.2136C82.5922 77.0149 87.1015 70.7823 86.0532 62.4673C85.0192 54.1523 80.1652 49.2983 74.2772 47.216C68.3892 45.1336 63.8799 47.5606 62.5012 49.643C61.1082 51.7253 62.5012 54.1523 62.5012 54.1523"
                                            stroke="#58595B" stroke-width="2" stroke-miterlimit="10"
                                            stroke-linecap="round"></path>
                                        <path
                                            d="M29.4137 70.9551C29.4137 70.9551 29.0691 79.2701 36.6947 79.6147C44.3204 79.9594 45.6991 71.9891 45.6991 71.9891"
                                            stroke="#58595B" stroke-width="2" stroke-miterlimit="10"
                                            stroke-linecap="round"></path>
                                        <path
                                            d="M53.6548 59.5098C53.6548 59.5098 53.6548 69.5624 62.3144 69.9071C70.9741 70.2518 73.0564 62.6261 73.0564 62.6261"
                                            stroke="#58595B" stroke-width="2" stroke-miterlimit="10"
                                            stroke-linecap="round"></path>
                                        <path
                                            d="M85.6655 41.8997C85.6655 41.8997 86.0676 31.8614 77.4367 31.1577C68.7914 30.454 66.4075 37.9935 66.4075 37.9935"
                                            stroke="#58595B" stroke-width="2" stroke-miterlimit="10"
                                            stroke-linecap="round"></path>
                                        <path
                                            d="M91.8554 47.043C91.8554 47.043 89.2705 56.0329 96.9392 58.5748C104.608 61.1167 108.428 54.8266 108.428 54.8266"
                                            stroke="#58595B" stroke-width="2" stroke-miterlimit="10"
                                            stroke-linecap="round"></path>
                                        <path
                                            d="M54.359 27.6387C54.359 27.6387 56.786 38.036 46.044 41.497C35.302 44.958 32.875 37.6913 32.875 37.6913"
                                            stroke="#58595B" stroke-width="2" stroke-miterlimit="10"
                                            stroke-linecap="round"></path>
                                        <path
                                            d="M45.5125 52.0677C45.5125 52.0677 42.0515 49.9854 42.3962 46.869C42.7409 43.7527 45.2253 41.7422 45.2253 41.7422"
                                            stroke="#58595B" stroke-width="2" stroke-miterlimit="10"
                                            stroke-linecap="round"></path>
                                        <path
                                            d="M59.73 40.6348C59.73 40.6348 61.4677 44.4404 64.584 45.4888C67.7003 46.5228 69.2656 46.3504 69.2656 46.3504"
                                            stroke="#58595B" stroke-width="2" stroke-miterlimit="10"
                                            stroke-linecap="round"></path>
                                        <path
                                            d="M63.5359 25.3862C63.5359 25.3862 70.3286 18.8807 81.9035 20.5322C90.3909 21.7385 96.681 26.6931 98.3612 29.0195C100.616 32.1359 101.32 37.4781 100.444 40.1062C99.4095 43.2225 97.1549 45.1325 97.1549 45.1325"
                                            stroke="#58595B" stroke-width="2" stroke-miterlimit="10"
                                            stroke-linecap="round"></path>
                                        <path
                                            d="M10.5437 44.5134C10.5437 44.5134 10.874 35.4373 16.762 30.2386C22.65 25.04 29.931 21.9237 34.426 21.579C38.9353 21.2343 41.233 21.3636 41.233 21.3636"
                                            stroke="#58595B" stroke-width="2" stroke-miterlimit="10"
                                            stroke-linecap="round"></path>
                                        <path
                                            d="M71.1176 21.3073C71.1176 21.3073 66.1343 16.2092 56.4263 16.5538C46.7183 16.8985 41.175 20.7185 38.7624 23.8348C36.3354 26.9512 35.9907 28.6888 35.9907 28.6888"
                                            stroke="#58595B" stroke-width="2" stroke-miterlimit="10"
                                            stroke-linecap="round"></path>
                                    </svg>