<svg width="120" height="120" viewBox="0 0 120 120" fill="none"
                                        xmlns="http://www.w3.org/2000/svg">
                                        <path
                                            d="M47.5003 86.5C43.5003 93 45.4999 107 34.9999 104C26.5 87 13.4999 86 14.4997 85C14.4997 81.2559 13.5 74.0004 31.7829 74C35.3956 74 51.0003 76 47.5003 86.5Z"
                                            fill="#F04E30"></path>
                                        <path
                                            d="M58.5905 47.337L73.6254 31.8461C73.6254 31.8461 75.4493 29.1103 75.9053 23.6385C76.3613 18.1668 79.5531 14.063 83.2009 14.519C86.8487 14.975 89.449 23.047 92.7764 26.3744C96.4243 30.0222 106 30.4782 106 35.4939C106 40.0784 103.757 43.566 97.3362 44.1575C93.0352 44.5519 89.7325 45.279 88.8821 45.4762C88.7466 45.5131 88.6234 45.5747 88.5124 45.6733L69.5216 63.7522H65.8738L64.9618 52.8088L58.5781 53.2648V47.337H58.5905Z"
                                            stroke="#58595B" stroke-width="2" stroke-miterlimit="10"
                                            stroke-linecap="round"></path>
                                        <path
                                            d="M50.8386 55.5449L31.8477 73.6238C31.7491 73.7224 31.6136 73.7963 31.478 73.821C30.6277 74.0182 27.3372 74.7453 23.0239 75.1396C16.6033 75.7189 14.3604 79.2188 14.3604 83.8032C14.3604 88.819 23.9359 89.2749 27.5837 92.9228C30.8988 96.2378 33.5114 104.322 37.1592 104.778C40.8071 105.234 43.9989 101.13 44.4549 95.6586C44.9108 90.1869 46.7348 87.451 46.7348 87.451L61.7697 71.9601L63.5936 70.1362H57.6659V62.3846H50.8262V55.5449H50.8386Z"
                                            stroke="#58595B" stroke-width="2" stroke-miterlimit="10"
                                            stroke-linecap="round"></path>
                                        <path d="M46.9697 45.2906L39.9082 38.2168" stroke="#58595B" stroke-width="2"
                                            stroke-miterlimit="10" stroke-linecap="round"></path>
                                        <path d="M52.3178 42.1873L51.8618 32.2051" stroke="#58595B" stroke-width="2"
                                            stroke-miterlimit="10" stroke-linecap="round"></path>
                                        <path d="M43.8759 50.3945L33.8813 50.4438" stroke="#58595B" stroke-width="2"
                                            stroke-miterlimit="10" stroke-linecap="round"></path>
                                        <path d="M74.3276 75.1875L81.3891 82.249" stroke="#58595B" stroke-width="2"
                                            stroke-miterlimit="10" stroke-linecap="round"></path>
                                        <path d="M68.9795 78.2812L69.4231 88.2635" stroke="#58595B" stroke-width="2"
                                            stroke-miterlimit="10" stroke-linecap="round"></path>
                                        <path d="M77.4214 70.0864L87.4159 70.0371" stroke="#58595B" stroke-width="2"
                                            stroke-miterlimit="10" stroke-linecap="round"></path>
                                    </svg>