<svg width="120" height="120" viewBox="0 0 120 120" fill="none"
                                        xmlns="http://www.w3.org/2000/svg">
                                        <path
                                            d="M73.5 91.5L69 96.5L63.5 99.5C61 111 56.5 100.3 56.5 99.5C56.5 98.7 47.3333 93.8333 48 92L47 87L50.5 80.5L53.5 79L56.5 78L57.5 77.5H62L65.5 78.5C66.3333 78.8333 68.2 79.7 69 80.5C69.8 81.3 72.6667 83.6667 73 84.5L73.5 91.5Z"
                                            fill="#F04E30"></path>
                                        <path
                                            d="M44.1958 30.6289L54.1271 36.7084C57.8143 38.969 62.4562 38.969 66.1434 36.7084L76.0746 30.6289"
                                            stroke="#58595B" stroke-width="2.53" stroke-miterlimit="10"
                                            stroke-linecap="round"></path>
                                        <path
                                            d="M42.0776 36.6973L50.9445 42.1183C54.3573 44.2033 56.4313 47.9234 56.4313 51.9179V72.6803"
                                            stroke="#58595B" stroke-width="2.53" stroke-miterlimit="10"
                                            stroke-linecap="round"></path>
                                        <path
                                            d="M63.8281 72.694V51.9316C63.8281 47.9371 65.9022 44.217 69.315 42.132L78.1818 36.7109"
                                            stroke="#58595B" stroke-width="2.53" stroke-miterlimit="10"
                                            stroke-linecap="round"></path>
                                        <path
                                            d="M46.2369 45.5225C46.2698 49.0122 45.8528 51.7886 44.8652 54.1589C41.8255 61.7198 33.1562 61.5882 26.0561 57.8571C17.727 52.9189 14.7202 42.9108 16.487 34.5268C18.8354 23.3884 26.6707 14.368 36.997 14.0058C49.4193 13.7534 47.883 21.7424 46.3576 25.7258"
                                            stroke="#58595B" stroke-width="2.53" stroke-miterlimit="10"
                                            stroke-linecap="round"></path>
                                        <path
                                            d="M73.9018 25.7342C72.3765 21.7507 70.8401 13.7508 83.2625 14.0142C93.5888 14.3653 101.424 23.3967 103.772 34.5242C105.539 42.9081 102.532 52.9162 94.2033 57.8544C87.1033 61.5855 78.423 61.7172 75.3943 54.1562C74.4066 51.7859 73.9896 49.0205 74.0225 45.5199"
                                            stroke="#58595B" stroke-width="2.53" stroke-miterlimit="10"
                                            stroke-linecap="round"></path>
                                        <path
                                            d="M73.6056 87.0899C71.6413 77.6305 60.1408 77.7951 60.1298 77.7951C60.1188 77.7951 48.6183 77.6305 46.654 87.0899C46.3467 88.7799 46.5881 90.5466 47.4221 92.05C51.4276 98.7879 58.2203 96.1213 58.8459 103.814C58.9007 104.483 59.4604 104.999 60.1298 104.999C60.7992 104.999 61.3588 104.483 61.4137 103.814C62.0282 96.1213 68.821 98.777 72.8374 92.05C73.6824 90.5466 73.9129 88.7799 73.6056 87.0899Z"
                                            stroke="#58595B" stroke-width="2.53" stroke-miterlimit="10"
                                            stroke-linecap="round"></path>
                                        <path d="M98.3185 42.4473C95.2568 50.4801 89.0895 55.5609 84.5244 53.8271"
                                            stroke="#58595B" stroke-width="2.2" stroke-miterlimit="10"
                                            stroke-linecap="round"></path>
                                        <path d="M20.438 42.4473C23.4997 50.4801 29.6669 55.5609 34.232 53.8271"
                                            stroke="#58595B" stroke-width="2.2" stroke-miterlimit="10"
                                            stroke-linecap="round"></path>
                                    </svg>
